<svg xmlns="http://www.w3.org/2000/svg" height="12" viewBox="0 0 448 448" width="12"><g><link xmlns="" type="text/css" rel="stylesheet" id="dark-mode-general-link" class="active-path" style=""/><link xmlns="" type="text/css" rel="stylesheet" id="dark-mode-custom-link" class="active-path"/><style xmlns="" type="text/css" id="dark-mode-custom-style" class="active-path"/><path d="m408 184h-136c-4.417969 0-8-3.582031-8-8v-136c0-22.089844-17.910156-40-40-40s-40 17.910156-40 40v136c0 4.417969-3.582031 8-8 8h-136c-22.089844 0-40 17.910156-40 40s17.910156 40 40 40h136c4.417969 0 8 3.582031 8 8v136c0 22.089844 17.910156 40 40 40s40-17.910156 40-40v-136c0-4.417969 3.582031-8 8-8h136c22.089844 0 40-17.910156 40-40s-17.910156-40-40-40zm0 0" data-original="#000000" class="active-path" /></g> </svg>